<svg  viewBox="0 0 1122 245" fill="currentColor" xmlns="http://www.w3.org/2000/svg">
<path d="M69.8779 74.8696L52.2962 55.6031C24.4666 83.4059 10.7988 100.726 3.11988 124.9C-0.724149 137.001 -1.18332 150.056 2.68084 162.991C6.312 175.145 17.454 185.828 29.998 190.959C47.7362 198.215 64.392 194.386 77.2703 186.842C89.9571 180.014 100.562 169.827 107.8 162.603L107.826 162.577L172.511 97.2971C187.744 82.9768 203.005 78.6808 212.363 81.3709C218.966 83.2686 228.016 90.5376 230.643 113.782L169.111 173.333L187.973 192.869L234.058 148.393C236.34 158.422 240.291 168.364 246.752 176.552C252.741 184.141 260.886 190.188 271.418 193.042C281.82 195.861 293.489 195.284 306.221 191.517L309.732 190.478L302.018 165.078L298.51 166.116C289.324 168.834 282.922 168.083 278.529 166.892C274.265 165.737 270.893 163.36 268.071 159.784C261.976 152.059 258.964 138.584 258.691 124.321L310.066 75.0203L291.166 55.4778L253.598 91.5661C247.623 72.7802 236.217 60.0307 219.872 55.3325C197.024 48.765 172.034 60.4436 153.7 77.7637L153.537 77.9174L88.5923 143.46L88.5847 143.467C81.4117 150.625 73.2455 158.226 64.392 162.991C55.8394 167.593 47.1738 168.231 41.1707 165.744C35.7532 163.258 30.6432 158.658 28.5901 154.104C26.5548 149.59 25.3786 143.123 28.3658 133.719C34.3503 114.88 48.3432 96.3248 69.8779 74.8696Z" />
<path d="M487.361 191.547C480.836 193.719 473.224 194.806 465.612 194.806C439.786 194.806 420.484 180.683 420.484 149.45V81.008H396.561V55.7498H420.484V15.0107H450.117V55.7498H485.458V81.008H450.117V147.82C450.117 161.4 457.728 168.461 468.874 168.461C474.04 168.461 480.292 167.357 485.458 164.913L487.361 191.547Z"  />
<path d="M508.975 192.633V0.344673H538.608V79.3784C548.123 62.268 564.162 53.577 583.464 53.577C614.456 53.577 634.845 72.8602 634.845 102.735V192.633H605.212V109.525C605.212 91.3286 593.794 80.1932 575.308 80.1932C552.472 80.1932 538.608 100.02 538.608 133.426V192.633H508.975Z"  />
<path d="M661.438 192.633V55.7498H691.07V192.633H661.438Z" />
<path d="M718.06 192.633V55.7498H747.692V78.5636C756.935 63.8976 772.703 53.577 792.82 53.577C821.909 53.577 842.298 72.8602 842.298 102.464V192.633H812.666V109.254C812.666 92.1433 802.064 80.1932 784.665 80.1932C761.557 80.1932 747.692 99.748 747.692 132.611V192.633H718.06Z"  />
<path d="M925.747 188.831C884.969 188.831 861.589 160.857 861.589 121.204C861.589 81.5512 884.969 53.577 925.204 53.577C942.602 53.577 958.37 60.9101 966.254 71.5022V55.7498H995.615V185.028C995.615 220.336 968.701 244.236 929.281 244.236C897.202 244.236 871.92 227.125 867.57 201.867L895.299 197.522C896.931 211.101 911.339 220.064 929.281 220.064C951.302 220.064 966.526 207.028 966.526 188.016V171.449C959.729 181.769 943.69 188.831 925.747 188.831ZM891.222 121.204C891.222 146.462 906.446 163.029 929.825 163.029C952.933 163.029 968.157 146.462 968.157 121.204C968.157 95.9457 952.933 79.3784 929.825 79.3784C906.446 79.3784 891.222 95.9457 891.222 121.204Z"  />
<path d="M1069.49 194.806C1036.05 194.806 1017.02 174.165 1010.77 154.61L1035.24 144.289C1039.86 158.955 1050.46 171.177 1069.49 171.177C1083.63 171.177 1093.14 163.029 1093.14 153.252C1093.14 123.648 1016.75 142.931 1016.75 91.057C1016.75 69.6011 1035.51 53.577 1065.14 53.577C1090.97 53.577 1112.72 67.1567 1118.7 87.2547L1094.23 97.5752C1090.7 83.9956 1077.92 76.3909 1065.41 76.3909C1052.36 76.3909 1044.21 81.5512 1044.21 90.5138C1044.21 116.858 1121.14 96.7605 1121.14 152.98C1121.14 176.609 1100.48 194.806 1069.49 194.806Z"  />
<path d="M692.977 16.6931C692.977 25.9124 685.496 33.3862 676.267 33.3862C667.039 33.3862 659.558 25.9124 659.558 16.6931C659.558 7.47377 667.039 0 676.267 0C685.496 0 692.977 7.47377 692.977 16.6931Z"  />
</svg>